<?xml version="1.0" encoding="utf-8"?>
<!-- Generator: Adobe Illustrator 24.3.0, SVG Export Plug-In . SVG Version: 6.00 Build 0)  -->
<svg version="1.1" id="Layer_1" xmlns="http://www.w3.org/2000/svg" xmlns:xlink="http://www.w3.org/1999/xlink" x="0px" y="0px"
	 viewBox="0 0 841.9 595.3" style="enable-background:new 0 0 841.9 595.3;" xml:space="preserve">
<style type="text/css">
	.st0{fill:none;stroke:#FFFFFF;}
	.st1{fill:none;stroke:#CCCCCC;}
	.st2{fill:#BD7640;}
	.st3{fill:#2FA148;}
	.st4{fill:#EE8A22;}
	.st5{fill:#010101;}
	.st6{font-family:'Arquitecta';}
	.st7{font-size:11px;}
	.st8{font-size:9px;}
	.st9{enable-background:new    ;}
	.st10{fill:none;}
</style>
<g transform="translate(383.5,281)">
	<path id="p_945.5" class="st0" d="M38.5,290.8c-154.6,0-280-125.4-280-280s125.4-280,280-280s280,125.4,280,280
		S193.1,290.8,38.5,290.8z"/>
</g>
<g id="América" transform="translate(243.33002473888394,258.8977154288217)">
	<path id="p_639.4892722954808" class="st0" d="M38.5,147.1c-75.3,0-136.3-61-136.3-136.2s61-136.3,136.2-136.3c0,0,0,0,0.1,0
		c75.3,0,136.3,61,136.3,136.2S113.8,147.1,38.5,147.1C38.5,147.1,38.5,147.1,38.5,147.1z"/>
</g>
<g id="África" transform="translate(520.6610882443042,258.8977154288217)">
	<path id="p_919.7917098303145" class="st0" d="M38.5,150c-76.9,0-139.2-62.3-139.2-139.2s62.3-139.2,139.2-139.2
		S177.7-66.1,177.7,10.8S115.4,150,38.5,150z"/>
</g>
<g id="Asia" transform="translate(379.4052324165124,456.93353436449195)">
	<path id="p_939.5209617840028" class="st0" d="M38.5,113C-17.9,113-63.7,67.2-63.7,10.8S-17.9-91.4,38.5-91.4
		S140.7-45.6,140.7,10.8S94.9,113,38.5,113z"/>
</g>
<g id="Arábica" transform="translate(218.00418987495038,258.8977154288217)">
	<path id="p_587.0009773471572" class="st0" d="M38.5,119.9c-60.3,0-109.1-48.8-109.1-109.1S-21.8-98.3,38.5-98.3c0,0,0,0,0,0
		c60.3,0,109.1,48.8,109.1,109.1C147.6,71.1,98.8,119.9,38.5,119.9C38.5,119.9,38.5,119.9,38.5,119.9z"/>
</g>
<g id="Robusta" transform="translate(353.3474093924973,258.8977154288217)">
	<path id="p_637.6526470750243" class="st1" d="M38.5,35.2c-13.5,0-24.4-10.9-24.4-24.4S25-13.6,38.5-13.6S62.9-2.7,62.9,10.8
		S52,35.2,38.5,35.2z"/>
</g>
<g id="Arábica_1_" transform="translate(454.6507488482315,258.8977154288217)">
	<path id="p_785.9344058177127" class="st0" d="M38.5,82.2c-39.4,0-71.4-31.9-71.4-71.4s31.9-71.4,71.4-71.4c0,0,0,0,0,0
		c39.4,0,71.4,31.9,71.4,71.4S77.9,82.2,38.5,82.2C38.5,82.2,38.5,82.2,38.5,82.2z"/>
</g>
<g id="Robusta_1_" transform="translate(592.9653423951919,258.8977154288217)">
	<path id="p_917.955084609858" class="st0" d="M38.5,75.9c-35.9,0-65.1-29.1-65.1-65.1S2.6-54.3,38.5-54.3s65.1,29.1,65.1,65.1
		S74.4,75.9,38.5,75.9z"/>
</g>
<g id="Robusta_2_" transform="translate(330.59018790910176,456.93353436449195)">
	<path id="p_840.054247548725" class="st0" d="M38.5,62.3C10,62.3-13,39.3-13,10.8S10-40.7,38.5-40.7S90-17.6,90,10.8
		S67,62.3,38.5,62.3z"/>
</g>
<g id="Arábica_2_" transform="translate(431.854070301872,456.93353436449195)">
	<path id="p_937.6843365635463" class="st0" d="M38.5,58.7C12,58.7-9.4,37.3-9.4,10.8S12-37.1,38.5-37.1s47.9,21.4,47.9,47.9
		S65,58.7,38.5,58.7z"/>
</g>
<g id="Ambos" transform="translate(383.94782811217857,513.5185319629601)">
	<path id="p_922.873882328844" class="st1" d="M38.5,35.2c-13.5,0-24.4-10.9-24.4-24.4S25-13.6,38.5-13.6S62.9-2.7,62.9,10.8
		S52,35.2,38.5,35.2z"/>
</g>
<g id="Bolivia" transform="translate(182.77037540973475,238.55546316275212)">
	<path id="p_444.8967356057357" class="st2" d="M38.5,33.4c-12.5,0-22.6-10.1-22.6-22.6S26-11.8,38.5-11.8S61.1-1.7,61.1,10.8
		S51,33.4,38.5,33.4z"/>
</g>
<g id="Colombia" transform="translate(229.74879469668892,238.55546316275212)">
	<path id="p_491.87515489268986" class="st2" d="M38.5,33.4c-12.5,0-22.6-10.1-22.6-22.6S26-11.8,38.5-11.8S61.1-1.7,61.1,10.8
		S51,33.4,38.5,33.4z"/>
</g>
<g id="Costa_Rica" transform="translate(206.25958505321185,279.2399676948913)">
	<path id="p_509.070449781352" class="st2" d="M38.5,33.4c-12.5,0-22.6-10.1-22.6-22.6S26-11.8,38.5-11.8S61.1-1.7,61.1,10.8
		S51,33.4,38.5,33.4z"/>
</g>
<g id="Ecuador" transform="translate(206.25958505321185,197.87095863061302)">
	<path id="p_427.7014407170737" class="st2" d="M38.5,33.4c-12.5,0-22.6-10.1-22.6-22.6S26-11.8,38.5-11.8S61.1-1.7,61.1,10.8
		S51,33.4,38.5,33.4z"/>
</g>
<g id="El_Salvador" transform="translate(159.2811657662577,197.87095863061302)">
	<path id="p_380.72302143011956" class="st2" d="M38.5,33.4c-12.5,0-22.6-10.1-22.6-22.6S26-11.8,38.5-11.8S61.1-1.7,61.1,10.8
		S51,33.4,38.5,33.4z"/>
</g>
<g id="Guatemala" transform="translate(253.23800434016601,197.87095863061302)">
	<path id="p_474.6798600040279" class="st2" d="M38.5,33.4c-12.5,0-22.6-10.1-22.6-22.6S26-11.8,38.5-11.8S61.1-1.7,61.1,10.8
		S51,33.4,38.5,33.4z"/>
</g>
<g id="Jamaica" transform="translate(253.23800434016601,279.2399676948913)">
	<path id="p_556.0488690683061" class="st2" d="M38.5,33.4c-12.5,0-22.6-10.1-22.6-22.6S26-11.8,38.5-11.8S61.1-1.7,61.1,10.8
		S51,33.4,38.5,33.4z"/>
</g>
<g id="Nicaragua" transform="translate(159.2811657662577,279.2399676948913)">
	<path id="p_462.0920304943978" class="st2" d="M38.5,33.4c-12.5,0-22.6-10.1-22.6-22.6S26-11.8,38.5-11.8S61.1-1.7,61.1,10.8
		S51,33.4,38.5,33.4z"/>
</g>
<g id="Panáma" transform="translate(135.79195612278062,238.55546316275212)">
	<path id="p_397.9183163187816" class="st2" d="M38.5,33.4c-12.5,0-22.6-10.1-22.6-22.6S26-11.8,38.5-11.8S61.1-1.7,61.1,10.8
		S51,33.4,38.5,33.4z"/>
</g>
<g id="Perú" transform="translate(276.7272139836431,238.55546316275212)">
	<path id="p_538.8535741796439" class="st2" d="M38.5,33.4c-12.5,0-22.6-10.1-22.6-22.6S26-11.8,38.5-11.8S61.1-1.7,61.1,10.8
		S51,33.4,38.5,33.4z"/>
</g>
<g id="Venezuela" transform="translate(300.21642362712015,279.2399676948913)">
	<path id="p_603.0272883552602" class="st2" d="M38.5,33.4c-12.5,0-22.6-10.1-22.6-22.6S26-11.8,38.5-11.8S61.1-1.7,61.1,10.8
		S51,33.4,38.5,33.4z"/>
</g>
<g id="Brasil" transform="translate(353.3474093924973,258.8977154288217)">
	<path id="p_635.8160218545678" class="st3" d="M38.5,33.4c-12.5,0-22.6-10.1-22.6-22.6S26-11.8,38.5-11.8S61.1-1.7,61.1,10.8
		S51,33.4,38.5,33.4z"/>
</g>
<g id="Etiopía" transform="translate(454.6507488482315,258.8977154288217)">
	<path id="p_737.119361310302" class="st2" d="M38.5,33.4c-12.5,0-22.6-10.1-22.6-22.6S26-11.8,38.5-11.8S61.1-1.7,61.1,10.8
		S51,33.4,38.5,33.4z"/>
</g>
<g id="Kenia" transform="translate(501.62916813518564,258.8977154288217)">
	<path id="p_784.0977805972561" class="st2" d="M38.5,33.4c-12.5,0-22.6-10.1-22.6-22.6S26-11.8,38.5-11.8S61.1-1.7,61.1,10.8
		S51,33.4,38.5,33.4z"/>
</g>
<g id="Mozambique" transform="translate(478.13995849170857,299.58221996096086)">
	<path id="p_801.2930754859182" class="st2" d="M38.5,33.4c-12.5,0-22.6-10.1-22.6-22.6S26-11.8,38.5-11.8S61.1-1.7,61.1,10.8
		S51,33.4,38.5,33.4z"/>
</g>
<g id="Tanzania" transform="translate(478.13995849170857,218.21321089668257)">
	<path id="p_719.92406642164" class="st2" d="M38.5,33.4c-12.5,0-22.6-10.1-22.6-22.6S26-11.8,38.5-11.8S61.1-1.7,61.1,10.8
		S51,33.4,38.5,33.4z"/>
</g>
<g id="Zambia" transform="translate(431.16153920475443,218.21321089668257)">
	<path id="p_672.9456471346858" class="st2" d="M38.5,33.4c-12.5,0-22.6-10.1-22.6-22.6S26-11.8,38.5-11.8S61.1-1.7,61.1,10.8
		S51,33.4,38.5,33.4z"/>
</g>
<g id="Angola" transform="translate(569.4761327517148,258.8977154288217)">
	<path id="p_851.9447452137853" class="st3" d="M38.5,33.4c-12.5,0-22.6-10.1-22.6-22.6S26-11.8,38.5-11.8S61.1-1.7,61.1,10.8
		S51,33.4,38.5,33.4z"/>
</g>
<g id="Camerún" transform="translate(616.454552038669,258.8977154288217)">
	<path id="p_898.9231645007395" class="st3" d="M38.5,33.4c-12.5,0-22.6-10.1-22.6-22.6S26-11.8,38.5-11.8S61.1-1.7,61.1,10.8
		S51,33.4,38.5,33.4z"/>
</g>
<g id="Costa_de_Marfil" transform="translate(592.9653423951919,299.58221996096086)">
	<path id="p_916.1184593894016" class="st3" d="M38.5,33.4c-12.5,0-22.6-10.1-22.6-22.6S26-11.8,38.5-11.8S61.1-1.7,61.1,10.8
		S51,33.4,38.5,33.4z"/>
</g>
<g id="Uganda" transform="translate(592.9653423951919,218.21321089668257)">
	<path id="p_834.7494503251232" class="st3" d="M38.5,33.4c-12.5,0-22.6-10.1-22.6-22.6S26-11.8,38.5-11.8S61.1-1.7,61.1,10.8
		S51,33.4,38.5,33.4z"/>
</g>
<g id="Sri_Lanka" transform="translate(307.1009782656247,443.37203285377893)">
	<path id="p_774.0439081526524" class="st3" d="M38.5,33.4c-12.5,0-22.6-10.1-22.6-22.6S26-11.8,38.5-11.8S61.1-1.7,61.1,10.8
		S51,33.4,38.5,33.4z"/>
</g>
<g id="Sumatra" transform="translate(354.0793975525788,443.37203285377893)">
	<path id="p_821.0223274396066" class="st3" d="M38.5,33.4c-12.5,0-22.6-10.1-22.6-22.6S26-11.8,38.5-11.8S61.1-1.7,61.1,10.8
		S51,33.4,38.5,33.4z"/>
</g>
<g id="Vietnam" transform="translate(330.59018790910176,484.05653738591803)">
	<path id="p_838.2176223282686" class="st3" d="M38.5,33.4c-12.5,0-22.6-10.1-22.6-22.6S26-11.8,38.5-11.8S61.1-1.7,61.1,10.8
		S51,33.4,38.5,33.4z"/>
</g>
<g id="Yemen" transform="translate(408.36486065839495,456.93353436449195)">
	<path id="p_888.8692920561357" class="st2" d="M38.5,33.4c-12.5,0-22.6-10.1-22.6-22.6S26-11.8,38.5-11.8S61.1-1.7,61.1,10.8
		S51,33.4,38.5,33.4z"/>
</g>
<g id="Indonesia" transform="translate(455.3432799453491,456.93353436449195)">
	<path id="p_935.8477113430898" class="st2" d="M38.5,33.4c-12.5,0-22.6-10.1-22.6-22.6S26-11.8,38.5-11.8S61.1-1.7,61.1,10.8
		S51,33.4,38.5,33.4z"/>
</g>
<g id="India" transform="translate(383.94782811217857,513.5185319629601)">
	<path id="p_921.0372571083875" class="st4" d="M38.5,33.4c-12.5,0-22.6-10.1-22.6-22.6S26-11.8,38.5-11.8S61.1-1.7,61.1,10.8
		S51,33.4,38.5,33.4z"/>
</g>
<g transform="translate(182.77037540973475,238.55546316275212)">
	<text transform="matrix(1 0 0 1 25.771 13.2154)" class="st5 st6 st7">Bolivia</text>
</g>
<g transform="translate(229.74879469668892,238.55546316275212)">
	<text transform="matrix(1 0 0 1 19.3794 13.2154)" class="st5 st6 st7">Colombia</text>
</g>
<g transform="translate(206.25958505321185,279.2399676948913)">
	<text transform="matrix(1 0 0 1 16.0469 13.2154)" class="st5 st6 st7">Costa Rica</text>
</g>
<g transform="translate(206.25958505321185,197.87095863061302)">
	<text transform="matrix(1 0 0 1 21.877 13.2154)" class="st5 st6 st7">Ecuador</text>
</g>
<g transform="translate(159.2811657662577,197.87095863061302)">
	<text transform="matrix(1 0 0 1 15.9312 13.2154)" class="st5 st6 st7">El Salvador</text>
</g>
<g transform="translate(253.23800434016601,197.87095863061302)">
	<text transform="matrix(1 0 0 1 16.0927 13.3356)" class="st5 st6 st7">Guatemala</text>
</g>
<g transform="translate(253.23800434016601,279.2399676948913)">
	<text transform="matrix(1 0 0 1 21.8818 13.2154)" class="st5 st6 st7">Jamaica</text>
</g>
<g transform="translate(159.2811657662577,279.2399676948913)">
	<text transform="matrix(1 0 0 1 17.7095 13.2154)" class="st5 st6 st7">Nicaragua</text>
</g>
<g transform="translate(135.79195612278062,238.55546316275212)">
	<text transform="matrix(1 0 0 1 21.8769 13.2154)" class="st5 st6 st7">Panáma</text>
</g>
<g transform="translate(276.7272139836431,238.55546316275212)">
	<text transform="matrix(1 0 0 1 29.9385 13.2154)" class="st5 st6 st7">Perú</text>
</g>
<g transform="translate(300.21642362712015,279.2399676948913)">
	<text transform="matrix(1 0 0 1 17.1455 13.2154)" class="st5 st6 st7">Venezuela</text>
</g>
<g transform="translate(353.3474093924973,258.8977154288217)">
	<g>
		<text transform="matrix(1 0 0 1 25.9976 13.2154)" class="st5 st6 st7">Brasil</text>
	</g>
</g>
<g transform="translate(454.6507488482315,258.8977154288217)">
	<g>
		<text transform="matrix(1 0 0 1 22.9336 13.2154)" class="st5 st6 st7">Etiopía</text>
	</g>
</g>
<g transform="translate(501.62916813518564,258.8977154288217)">
	<g>
		<text transform="matrix(1 0 0 1 25.7119 13.2154)" class="st5 st6 st7">Kenia</text>
	</g>
</g>
<g transform="translate(478.13995849170857,299.58221996096086)">
	<g>
		<text transform="matrix(1 0 0 1 17.8745 13.2154)" class="st5 st6 st8">Mozambique</text>
	</g>
</g>
<g transform="translate(478.13995849170857,218.21321089668257)">
	<g>
		<text transform="matrix(1 0 0 1 18.4854 13.2154)" class="st5 st6 st7">Tanzania</text>
	</g>
</g>
<g transform="translate(431.16153920475443,218.21321089668257)">
	<g>
		<text transform="matrix(1 0 0 1 21.8276 13.2154)" class="st5 st6 st7">Zambia</text>
	</g>
</g>
<g transform="translate(569.4761327517148,258.8977154288217)">
	<g>
		<text transform="matrix(1 0 0 1 22.9312 13.2154)" class="st5 st6 st7">Angola</text>
	</g>
</g>
<g transform="translate(616.454552038669,258.8977154288217)">
	<g>
		<text transform="matrix(1 0 0 1 17.936 13.2154)" class="st5 st6 st7">Camerún</text>
	</g>
</g>
<g transform="translate(592.9653423951919,299.58221996096086)">
	<g>
		<text transform="matrix(1 0 0 1 24.63 0.9601)" class="st9"><tspan x="0" y="0" class="st5 st6 st7">Costa </tspan><tspan x="7" y="13.2" class="st5 st6 st7">de </tspan><tspan x="1" y="26.4" class="st5 st6 st7">Marfil</tspan></text>
	</g>
</g>
<g transform="translate(592.9653423951919,218.21321089668257)">
	<g>
		<text transform="matrix(1 0 0 1 20.9854 13.2154)" class="st5 st6 st7">Uganda</text>
	</g>
</g>
<g transform="translate(307.1009782656247,443.37203285377893)">
	<g>
		<text transform="matrix(1 0 0 1 17.377 13.2154)" class="st5 st6 st7">Sri Lanka</text>
	</g>
</g>
<g transform="translate(354.0793975525788,443.37203285377893)">
	<g>
		<text transform="matrix(1 0 0 1 19.6035 13.2154)" class="st5 st6 st7">Sumatra</text>
	</g>
</g>
<g transform="translate(330.59018790910176,484.05653738591803)">
	<g>
		<text transform="matrix(1 0 0 1 20.248 13.2154)" class="st5 st6 st7">Vietnam</text>
	</g>
</g>
<g transform="translate(408.36486065839495,456.93353436449195)">
	<g>
		<text transform="matrix(1 0 0 1 23.1167 13.2154)" class="st5 st6 st7">Yemen</text>
	</g>
</g>
<g transform="translate(455.3432799453491,456.93353436449195)">
	<g>
		<text transform="matrix(1 0 0 1 16.8154 13.2154)" class="st5 st6 st7">Indonesia</text>
	</g>
</g>
<g transform="translate(383.94782811217857,513.5185319629601)">
	<g>
		<text transform="matrix(1 0 0 1 27.6577 13.2154)" class="st5 st6 st7">India</text>
	</g>
</g>
<path id="SVGID_x5F_1_x5F_" class="st10" d="M209.5,154.2c0,0,80.9-54.6,164.7,15.3"/>
<text><textPath  xlink:href="#SVGID_x5F_1_x5F_" startOffset="18.799%">
<tspan  class="st6" style="fill:#FFFFFF; font-size:44px; letter-spacing:-4;">América</tspan></textPath>
</text>
<g>
	<path id="SVGID_x5F_2_x5F_" class="st10" d="M453.3,179.2c0,0,74.1-89.6,177.2-27.5"/>
	<text>	<textPath  xlink:href="#SVGID_x5F_2_x5F_" startOffset="13.136%">
<tspan  class="st6" style="fill:#FFFFFF; font-size:44px; letter-spacing:-4;">África</tspan>	</textPath>
</text>
</g>
<g>
	<path id="SVGID_x5F_3_x5F_" class="st10" d="M486.1,389.9c0,0,67.6,48,23.9,130.6"/>
	<text>	<textPath  xlink:href="#SVGID_x5F_3_x5F_" startOffset="1.465%">
<tspan  class="st6" style="fill:#FFFFFF; font-size:44px; letter-spacing:-4;">Asia</tspan>	</textPath>
</text>
</g>
<g id="Guatemala_1_" transform="translate(253.23800434016601,197.87095863061302)">
	<path id="p_474.6798600040279_1_" class="st2" d="M-184.9-41.4c-12.5,0-22.6-10.1-22.6-22.6s10.1-22.6,22.6-22.6
		c12.5,0,22.6,10.1,22.6,22.6S-172.5-41.4-184.9-41.4z"/>
</g>
<g id="Uganda_1_" transform="translate(592.9653423951919,218.21321089668257)">
	<path id="p_834.7494503251232_1_" class="st3" d="M-524.7,8.1c-12.5,0-22.6-10.1-22.6-22.6S-537.1-37-524.7-37
		c12.5,0,22.6,10.1,22.6,22.6S-512.2,8.1-524.7,8.1z"/>
</g>
<g id="India_1_" transform="translate(383.94782811217857,513.5185319629601)">
	<path id="p_921.0372571083875_1_" class="st4" d="M-315.6-216.2c-12.5,0-22.6-10.1-22.6-22.6s10.1-22.6,22.6-22.6
		c12.5,0,22.6,10.1,22.6,22.6S-303.2-216.2-315.6-216.2z"/>
</g>
<g transform="translate(253.23800434016601,197.87095863061302)">
	<text transform="matrix(1 0 0 1 -200.2009 80.6515)" class="st5 st6 st7">Ambas</text>
</g>
<g transform="translate(253.23800434016601,197.87095863061302)">
	<text transform="matrix(1 0 0 1 -201.2012 9.4096)" class="st5 st6 st7">Robusta</text>
</g>
<g transform="translate(253.23800434016601,197.87095863061302)">
	<text transform="matrix(1 0 0 1 -200.223 -61.8703)" class="st5 st6 st7">Arábica</text>
</g>
</svg>
