<svg xmlns="http://www.w3.org/2000/svg" width="805" height="600"><rect width="805" height="600" x="0" y="0" fill="#FFFFFF" id="backgorund"/><g transform="translate(10,10)" id="visualization"><g><rect x="0" y="0" height="27.5" width="5" fill="black"><title>Brasil: 1</title></rect><rect x="0" y="32.5" height="27.5" width="5" fill="black"><title>Colombia: 1</title></rect><rect x="0" y="65" height="27.5" width="5" fill="black"><title>Costa Rica: 1</title></rect><rect x="390" y="20" height="27.500000000000014" width="5" fill="black"><title>afrutado: 1</title></rect><rect x="0" y="97.5" height="27.5" width="5" fill="black"><title>Hawai: 1</title></rect><rect x="0" y="130" height="27.5" width="5" fill="black"><title>Guatemala: 1</title></rect><rect x="390" y="52.500000000000014" height="27.5" width="5" fill="black"><title>: 1</title></rect><rect x="0" y="162.5" height="27.5" width="5" fill="black"><title>Jamaica: 1</title></rect><rect x="390" y="85.00000000000001" height="27.5" width="5" fill="black"><title>amargos: 1</title></rect><rect x="0" y="195" height="27.5" width="5" fill="black"><title>Nicaragua: 1</title></rect><rect x="390" y="117.50000000000001" height="27.499999999999986" width="5" fill="black"><title>acido: 1</title></rect><rect x="0" y="227.5" height="27.5" width="5" fill="black"><title>Perú: 1</title></rect><rect x="0" y="260" height="27.5" width="5" fill="black"><title>México: 1</title></rect><rect x="0" y="292.5" height="27.5" width="5" fill="black"><title>Etiopía: 1</title></rect><rect x="0" y="325" height="27.5" width="5" fill="black"><title>Tanzania: 1</title></rect><rect x="0" y="357.5" height="27.5" width="5" fill="black"><title>Camerún: 1</title></rect><rect x="390" y="150" height="27.5" width="5" fill="black"><title>amargo: 1</title></rect><rect x="0" y="390" height="27.5" width="5" fill="black"><title>Kenia: 1</title></rect><rect x="0" y="422.5" height="27.5" width="5" fill="black"><title>Yemen: 1</title></rect><rect x="390" y="182.5" height="27.5" width="5" fill="black"><title>achocolatado: 1</title></rect><rect x="0" y="455" height="27.5" width="5" fill="black"><title>India: 1</title></rect><rect x="390" y="215" height="27.5" width="5" fill="black"><title>vinoso: 1</title></rect><rect x="0" y="487.5" height="27.5" width="5" fill="black"><title>Célebes: 1</title></rect><rect x="0" y="520" height="27.5" width="5" fill="black"><title>Sumatra: 1</title></rect><rect x="0" y="552.5" height="27.5" width="5" fill="black"><title>Vietnam: 1</title></rect><rect x="390" y="247.5" height="27.5" width="5" fill="black"><title>amarga: 1</title></rect><rect x="780" y="29.999999999999943" height="27.500000000000057" width="5" fill="black"><title>ligero: 1</title></rect><rect x="780" y="62.5" height="27.5" width="5" fill="black"><title>leve: 1</title></rect><rect x="780" y="95" height="82.5" width="5" fill="black"><title>suave: 3</title></rect><rect x="780" y="182.5" height="82.5" width="5" fill="black"><title>intenso: 3</title></rect><rect x="780" y="270" height="82.5" width="5" fill="black"><title>fuerte: 3</title></rect><rect x="390" y="280" height="110" width="5" fill="black"><title>dulce: 4</title></rect><rect x="390" y="395" height="165" width="5" fill="black"><title>ácido: 6</title></rect><rect x="780" y="357.5" height="192.5" width="5" fill="black"><title>: 7</title></rect></g><g fill="none" stroke-opacity="1"><g style="mix-blend-mode: multiply;"><path d="M5,13.75C197.5,13.75,197.5,293.75,390,293.75" stroke="#1f77b4" stroke-width="27.5"/><title>Brasil → dulce: 1</title></g><g style="mix-blend-mode: multiply;"><path d="M5,46.25C197.5,46.25,197.5,321.25,390,321.25" stroke="#2ca02c" stroke-width="27.5"/><title>Colombia → dulce: 1</title></g><g style="mix-blend-mode: multiply;"><path d="M5,78.75C197.5,78.75,197.5,33.75,390,33.75" stroke="#d62728" stroke-width="27.5"/><title>Costa Rica → afrutado: 1</title></g><g style="mix-blend-mode: multiply;"><path d="M5,111.25C197.5,111.25,197.5,408.75,390,408.75" stroke="#7f7f7f" stroke-width="27.5"/><title>Hawai → ácido: 1</title></g><g style="mix-blend-mode: multiply;"><path d="M5,143.75C197.5,143.75,197.5,66.25000000000001,390,66.25000000000001" stroke="#e377c2" stroke-width="27.5"/><title>Guatemala → : 1</title></g><g style="mix-blend-mode: multiply;"><path d="M5,176.25C197.5,176.25,197.5,98.75000000000001,390,98.75000000000001" stroke="#17becf" stroke-width="27.5"/><title>Jamaica → amargos: 1</title></g><g style="mix-blend-mode: multiply;"><path d="M5,208.75C197.5,208.75,197.5,131.25,390,131.25" stroke="#cccccc" stroke-width="27.5"/><title>Nicaragua → acido: 1</title></g><g style="mix-blend-mode: multiply;"><path d="M5,241.25C197.5,241.25,197.5,348.75,390,348.75" stroke="#cccccc" stroke-width="27.5"/><title>Perú → dulce: 1</title></g><g style="mix-blend-mode: multiply;"><path d="M5,273.75C197.5,273.75,197.5,376.25,390,376.25" stroke="#cccccc" stroke-width="27.5"/><title>México → dulce: 1</title></g><g style="mix-blend-mode: multiply;"><path d="M5,306.25C197.5,306.25,197.5,436.25,390,436.25" stroke="#8c564b" stroke-width="27.5"/><title>Etiopía → ácido: 1</title></g><g style="mix-blend-mode: multiply;"><path d="M5,338.75C197.5,338.75,197.5,463.75,390,463.75" stroke="#cccccc" stroke-width="27.5"/><title>Tanzania → ácido: 1</title></g><g style="mix-blend-mode: multiply;"><path d="M5,371.25C197.5,371.25,197.5,163.75,390,163.75" stroke="#ff7f0e" stroke-width="27.5"/><title>Camerún → amargo: 1</title></g><g style="mix-blend-mode: multiply;"><path d="M5,403.75C197.5,403.75,197.5,491.25,390,491.25" stroke="#cccccc" stroke-width="27.5"/><title>Kenia → ácido: 1</title></g><g style="mix-blend-mode: multiply;"><path d="M5,436.25C197.5,436.25,197.5,196.25,390,196.25" stroke="#cccccc" stroke-width="27.5"/><title>Yemen → achocolatado: 1</title></g><g style="mix-blend-mode: multiply;"><path d="M5,468.75C197.5,468.75,197.5,228.75,390,228.75" stroke="#bcbd22" stroke-width="27.5"/><title>India → vinoso: 1</title></g><g style="mix-blend-mode: multiply;"><path d="M5,501.25C197.5,501.25,197.5,518.75,390,518.75" stroke="#9467bd" stroke-width="27.5"/><title>Célebes → ácido: 1</title></g><g style="mix-blend-mode: multiply;"><path d="M5,533.75C197.5,533.75,197.5,546.25,390,546.25" stroke="#cccccc" stroke-width="27.5"/><title>Sumatra → ácido: 1</title></g><g style="mix-blend-mode: multiply;"><path d="M5,566.25C197.5,566.25,197.5,261.25,390,261.25" stroke="#cccccc" stroke-width="27.5"/><title>Vietnam → amarga: 1</title></g><g style="mix-blend-mode: multiply;"><path d="M395,307.5C587.5,307.5,587.5,150,780,150" stroke="#cccccc" stroke-width="55"/><title>dulce → suave: 2</title></g><g style="mix-blend-mode: multiply;"><path d="M395,362.5C587.5,362.5,587.5,495,780,495" stroke="#cccccc" stroke-width="55"/><title>dulce → : 2</title></g><g style="mix-blend-mode: multiply;"><path d="M395,33.75C587.5,33.75,587.5,196.25,780,196.25" stroke="#cccccc" stroke-width="27.5"/><title>afrutado → intenso: 1</title></g><g style="mix-blend-mode: multiply;"><path d="M395,505C587.5,505,587.5,325,780,325" stroke="#cccccc" stroke-width="55"/><title>ácido → fuerte: 2</title></g><g style="mix-blend-mode: multiply;"><path d="M395,66.25000000000001C587.5,66.25000000000001,587.5,108.75,780,108.75" stroke="#cccccc" stroke-width="27.5"/><title> → suave: 1</title></g><g style="mix-blend-mode: multiply;"><path d="M395,98.75000000000001C587.5,98.75000000000001,587.5,371.25,780,371.25" stroke="#cccccc" stroke-width="27.5"/><title>amargos → : 1</title></g><g style="mix-blend-mode: multiply;"><path d="M395,131.25C587.5,131.25,587.5,398.75,780,398.75" stroke="#cccccc" stroke-width="27.5"/><title>acido → : 1</title></g><g style="mix-blend-mode: multiply;"><path d="M395,450C587.5,450,587.5,237.5,780,237.5" stroke="#cccccc" stroke-width="55"/><title>ácido → intenso: 2</title></g><g style="mix-blend-mode: multiply;"><path d="M395,546.25C587.5,546.25,587.5,536.25,780,536.25" stroke="#cccccc" stroke-width="27.5"/><title>ácido → : 1</title></g><g style="mix-blend-mode: multiply;"><path d="M395,163.75C587.5,163.75,587.5,426.25,780,426.25" stroke="#cccccc" stroke-width="27.5"/><title>amargo → : 1</title></g><g style="mix-blend-mode: multiply;"><path d="M395,196.25C587.5,196.25,587.5,453.75,780,453.75" stroke="#cccccc" stroke-width="27.5"/><title>achocolatado → : 1</title></g><g style="mix-blend-mode: multiply;"><path d="M395,228.75C587.5,228.75,587.5,43.74999999999994,780,43.74999999999994" stroke="#cccccc" stroke-width="27.5"/><title>vinoso → ligero: 1</title></g><g style="mix-blend-mode: multiply;"><path d="M395,408.75C587.5,408.75,587.5,76.25,780,76.25" stroke="#cccccc" stroke-width="27.5"/><title>ácido → leve: 1</title></g><g style="mix-blend-mode: multiply;"><path d="M395,261.25C587.5,261.25,587.5,283.75,780,283.75" stroke="#cccccc" stroke-width="27.5"/><title>amarga → fuerte: 1</title></g></g><g><text x="9" y="13.75" text-anchor="start"><tspan alignment-baseline="middle" x="9" style="font-family: Arial, sans-serif; font-size: 10px; fill: black; font-weight: bold;">Brasil</tspan></text><text x="9" y="46.25" text-anchor="start"><tspan alignment-baseline="middle" x="9" style="font-family: Arial, sans-serif; font-size: 10px; fill: black; font-weight: bold;">Colombia</tspan></text><text x="9" y="78.75" text-anchor="start"><tspan alignment-baseline="middle" x="9" style="font-family: Arial, sans-serif; font-size: 10px; fill: black; font-weight: bold;">Costa Rica</tspan></text><text x="399" y="33.75000000000001" text-anchor="start"><tspan alignment-baseline="middle" x="399" style="font-family: Arial, sans-serif; font-size: 10px; fill: black; font-weight: bold;">afrutado</tspan></text><text x="9" y="111.25" text-anchor="start"><tspan alignment-baseline="middle" x="9" style="font-family: Arial, sans-serif; font-size: 10px; fill: black; font-weight: bold;">Hawai</tspan></text><text x="9" y="143.75" text-anchor="start"><tspan alignment-baseline="middle" x="9" style="font-family: Arial, sans-serif; font-size: 10px; fill: black; font-weight: bold;">Guatemala</tspan></text><text x="399" y="66.25000000000001" text-anchor="start"><tspan alignment-baseline="middle" x="399" style="font-family: Arial, sans-serif; font-size: 10px; fill: black; font-weight: bold;"/></text><text x="9" y="176.25" text-anchor="start"><tspan alignment-baseline="middle" x="9" style="font-family: Arial, sans-serif; font-size: 10px; fill: black; font-weight: bold;">Jamaica</tspan></text><text x="399" y="98.75000000000001" text-anchor="start"><tspan alignment-baseline="middle" x="399" style="font-family: Arial, sans-serif; font-size: 10px; fill: black; font-weight: bold;">amargos</tspan></text><text x="9" y="208.75" text-anchor="start"><tspan alignment-baseline="middle" x="9" style="font-family: Arial, sans-serif; font-size: 10px; fill: black; font-weight: bold;">Nicaragua</tspan></text><text x="399" y="131.25" text-anchor="start"><tspan alignment-baseline="middle" x="399" style="font-family: Arial, sans-serif; font-size: 10px; fill: black; font-weight: bold;">acido</tspan></text><text x="9" y="241.25" text-anchor="start"><tspan alignment-baseline="middle" x="9" style="font-family: Arial, sans-serif; font-size: 10px; fill: black; font-weight: bold;">Perú</tspan></text><text x="9" y="273.75" text-anchor="start"><tspan alignment-baseline="middle" x="9" style="font-family: Arial, sans-serif; font-size: 10px; fill: black; font-weight: bold;">México</tspan></text><text x="9" y="306.25" text-anchor="start"><tspan alignment-baseline="middle" x="9" style="font-family: Arial, sans-serif; font-size: 10px; fill: black; font-weight: bold;">Etiopía</tspan></text><text x="9" y="338.75" text-anchor="start"><tspan alignment-baseline="middle" x="9" style="font-family: Arial, sans-serif; font-size: 10px; fill: black; font-weight: bold;">Tanzania</tspan></text><text x="9" y="371.25" text-anchor="start"><tspan alignment-baseline="middle" x="9" style="font-family: Arial, sans-serif; font-size: 10px; fill: black; font-weight: bold;">Camerún</tspan></text><text x="399" y="163.75" text-anchor="start"><tspan alignment-baseline="middle" x="399" style="font-family: Arial, sans-serif; font-size: 10px; fill: black; font-weight: bold;">amargo</tspan></text><text x="9" y="403.75" text-anchor="start"><tspan alignment-baseline="middle" x="9" style="font-family: Arial, sans-serif; font-size: 10px; fill: black; font-weight: bold;">Kenia</tspan></text><text x="9" y="436.25" text-anchor="start"><tspan alignment-baseline="middle" x="9" style="font-family: Arial, sans-serif; font-size: 10px; fill: black; font-weight: bold;">Yemen</tspan></text><text x="399" y="196.25" text-anchor="start"><tspan alignment-baseline="middle" x="399" style="font-family: Arial, sans-serif; font-size: 10px; fill: black; font-weight: bold;">achocolatado</tspan></text><text x="9" y="468.75" text-anchor="start"><tspan alignment-baseline="middle" x="9" style="font-family: Arial, sans-serif; font-size: 10px; fill: black; font-weight: bold;">India</tspan></text><text x="399" y="228.75" text-anchor="start"><tspan alignment-baseline="middle" x="399" style="font-family: Arial, sans-serif; font-size: 10px; fill: black; font-weight: bold;">vinoso</tspan></text><text x="9" y="501.25" text-anchor="start"><tspan alignment-baseline="middle" x="9" style="font-family: Arial, sans-serif; font-size: 10px; fill: black; font-weight: bold;">Célebes</tspan></text><text x="9" y="533.75" text-anchor="start"><tspan alignment-baseline="middle" x="9" style="font-family: Arial, sans-serif; font-size: 10px; fill: black; font-weight: bold;">Sumatra</tspan></text><text x="9" y="566.25" text-anchor="start"><tspan alignment-baseline="middle" x="9" style="font-family: Arial, sans-serif; font-size: 10px; fill: black; font-weight: bold;">Vietnam</tspan></text><text x="399" y="261.25" text-anchor="start"><tspan alignment-baseline="middle" x="399" style="font-family: Arial, sans-serif; font-size: 10px; fill: black; font-weight: bold;">amarga</tspan></text><text x="776" y="43.74999999999997" text-anchor="end"><tspan alignment-baseline="middle" x="776" style="font-family: Arial, sans-serif; font-size: 10px; fill: black; font-weight: bold;">ligero</tspan></text><text x="776" y="76.25" text-anchor="end"><tspan alignment-baseline="middle" x="776" style="font-family: Arial, sans-serif; font-size: 10px; fill: black; font-weight: bold;">leve</tspan></text><text x="776" y="136.25" text-anchor="end"><tspan alignment-baseline="middle" x="776" style="font-family: Arial, sans-serif; font-size: 10px; fill: black; font-weight: bold;">suave</tspan></text><text x="776" y="223.75" text-anchor="end"><tspan alignment-baseline="middle" x="776" style="font-family: Arial, sans-serif; font-size: 10px; fill: black; font-weight: bold;">intenso</tspan></text><text x="776" y="311.25" text-anchor="end"><tspan alignment-baseline="middle" x="776" style="font-family: Arial, sans-serif; font-size: 10px; fill: black; font-weight: bold;">fuerte</tspan></text><text x="399" y="335" text-anchor="start"><tspan alignment-baseline="middle" x="399" style="font-family: Arial, sans-serif; font-size: 10px; fill: black; font-weight: bold;">dulce</tspan></text><text x="399" y="477.5" text-anchor="start"><tspan alignment-baseline="middle" x="399" style="font-family: Arial, sans-serif; font-size: 10px; fill: black; font-weight: bold;">ácido</tspan></text><text x="776" y="453.75" text-anchor="end"><tspan alignment-baseline="middle" x="776" style="font-family: Arial, sans-serif; font-size: 10px; fill: black; font-weight: bold;"/></text></g><g><text x="2.5" y="-4" text-anchor="middle" style="font-family: Arial, sans-serif; font-size: 12px; fill: rgb(123, 123, 123); font-weight: bold;">Café de</text><text x="392.5" y="16" text-anchor="middle" style="font-family: Arial, sans-serif; font-size: 12px; fill: rgb(123, 123, 123); font-weight: bold;">Sabor</text><text x="782.5" y="25.999999999999943" text-anchor="middle" style="font-family: Arial, sans-serif; font-size: 12px; fill: rgb(123, 123, 123); font-weight: bold;">intensidad</text></g></g></svg>